<?xml version="1.0" encoding="UTF-8"?>
<svg width="700pt" height="700pt" version="1.1" viewBox="0 0 700 700" xmlns="http://www.w3.org/2000/svg" xmlns:xlink="http://www.w3.org/1999/xlink">
 <defs>
  <symbol id="w" overflow="visible">
   <path d="m1.875-0.10938c-0.09375 0.054688-0.19531 0.089844-0.29688 0.10938-0.10547 0.03125-0.21484 0.046875-0.32812 0.046875-0.34375 0-0.61719-0.09375-0.8125-0.28125-0.19922-0.19531-0.29688-0.45703-0.29688-0.78125 0-0.32031 0.097656-0.57812 0.29688-0.76562 0.19531-0.19531 0.46875-0.29688 0.8125-0.29688 0.11328 0 0.22266 0.015625 0.32812 0.046875 0.10156 0.023438 0.20312 0.058594 0.29688 0.10938v0.42188c-0.09375-0.070312-0.19531-0.11719-0.29688-0.14062-0.09375-0.03125-0.19531-0.046875-0.29688-0.046875-0.1875 0-0.33594 0.0625-0.4375 0.1875-0.10547 0.11719-0.15625 0.27734-0.15625 0.48438 0 0.21094 0.050781 0.375 0.15625 0.5 0.10156 0.11719 0.25 0.17188 0.4375 0.17188 0.10156 0 0.20312-0.015625 0.29688-0.046875 0.10156-0.03125 0.20312-0.078125 0.29688-0.14062z"/>
  </symbol>
  <symbol id="c" overflow="visible">
   <path d="m1.375-1.1094c-0.042969-0.019531-0.085938-0.035156-0.125-0.046875-0.042969-0.007812-0.089844-0.015625-0.14062-0.015625-0.125 0-0.22656 0.042969-0.29688 0.125-0.0625 0.074219-0.09375 0.1875-0.09375 0.34375v0.70312h-0.48438v-1.5312h0.48438v0.25c0.0625-0.09375 0.13281-0.16016 0.21875-0.20312 0.082031-0.050781 0.17969-0.078125 0.29688-0.078125h0.046875 0.09375z"/>
  </symbol>
  <symbol id="a" overflow="visible">
   <path d="m1.7656-0.76562v0.14062h-1.1406c0.007812 0.11719 0.046875 0.20312 0.10938 0.26562 0.070313 0.054687 0.17578 0.078125 0.3125 0.078125 0.09375 0 0.19141-0.015625 0.29688-0.046875 0.11328-0.03125 0.22656-0.078125 0.34375-0.14062v0.375c-0.11719 0.042969-0.23047 0.074219-0.34375 0.09375-0.11719 0.03125-0.23047 0.046875-0.34375 0.046875-0.28125 0-0.5-0.066406-0.65625-0.20312-0.14844-0.14453-0.21875-0.34766-0.21875-0.60938 0-0.25 0.070312-0.44141 0.21875-0.57812 0.15625-0.14453 0.36328-0.21875 0.625-0.21875 0.23828 0 0.42969 0.074219 0.57812 0.21875 0.14453 0.14844 0.21875 0.33984 0.21875 0.57812zm-0.5-0.17188c0-0.09375-0.03125-0.16406-0.09375-0.21875-0.054687-0.050781-0.12109-0.078125-0.20312-0.078125-0.09375 0-0.17188 0.027344-0.23438 0.078125-0.0625 0.054688-0.10156 0.125-0.10938 0.21875z"/>
  </symbol>
  <symbol id="e" overflow="visible">
   <path d="m0.92188-0.6875c-0.10547 0-0.18359 0.023438-0.23438 0.0625-0.054688 0.03125-0.078125 0.078125-0.078125 0.14062s0.019531 0.11719 0.0625 0.15625c0.039063 0.03125 0.097656 0.046875 0.17188 0.046875 0.09375 0 0.17188-0.03125 0.23438-0.09375 0.0625-0.070312 0.09375-0.15625 0.09375-0.25v-0.0625zm0.75-0.1875v0.875h-0.5v-0.23438c-0.0625 0.09375-0.13672 0.16797-0.21875 0.21875-0.085937 0.039062-0.18359 0.0625-0.29688 0.0625-0.15625 0-0.28906-0.046875-0.39062-0.14062-0.09375-0.09375-0.14062-0.21094-0.14062-0.35938 0-0.1875 0.054688-0.32031 0.17188-0.40625 0.125-0.082031 0.32031-0.125 0.59375-0.125h0.28125v-0.03125c0-0.082031-0.03125-0.14062-0.09375-0.17188s-0.15625-0.046875-0.28125-0.046875c-0.10547 0-0.20312 0.011719-0.29688 0.03125-0.085938 0.023437-0.16797 0.054687-0.25 0.09375v-0.375c0.10156-0.03125 0.20703-0.050781 0.3125-0.0625 0.11328-0.007813 0.22266-0.015625 0.32812-0.015625 0.26953 0 0.46875 0.058594 0.59375 0.17188 0.125 0.10547 0.1875 0.27734 0.1875 0.51562z"/>
  </symbol>
  <symbol id="d" overflow="visible">
   <path d="m0.76562-1.9688v0.4375h0.5v0.34375h-0.5v0.65625c0 0.074219 0.015625 0.125 0.046875 0.15625 0.03125 0.023438 0.085938 0.03125 0.17188 0.03125h0.25v0.34375h-0.42188c-0.19922 0-0.33984-0.035156-0.42188-0.10938-0.074219-0.082031-0.10938-0.22266-0.10938-0.42188v-0.65625h-0.25v-0.34375h0.25v-0.4375z"/>
  </symbol>
  <symbol id="l" overflow="visible">
   <path d="m1.2812-1.3125v-0.8125h0.48438v2.125h-0.48438v-0.21875c-0.074219 0.085938-0.15234 0.15234-0.23438 0.20312-0.074219 0.039062-0.16797 0.0625-0.28125 0.0625-0.1875 0-0.34375-0.070312-0.46875-0.21875-0.11719-0.15625-0.17188-0.35156-0.17188-0.59375 0-0.22656 0.054688-0.41406 0.17188-0.5625 0.125-0.15625 0.28125-0.23438 0.46875-0.23438 0.11328 0 0.20703 0.023438 0.28125 0.0625 0.082031 0.042969 0.16016 0.10547 0.23438 0.1875zm-0.32812 1c0.10156 0 0.17969-0.035156 0.23438-0.10938 0.0625-0.082031 0.09375-0.19531 0.09375-0.34375 0-0.14453-0.03125-0.25391-0.09375-0.32812-0.054688-0.082031-0.13281-0.125-0.23438-0.125-0.10547 0-0.1875 0.042969-0.25 0.125-0.054687 0.074219-0.078125 0.18359-0.078125 0.32812 0 0.14844 0.023438 0.26172 0.078125 0.34375 0.0625 0.074219 0.14453 0.10938 0.25 0.10938z"/>
  </symbol>
  <symbol id="k" overflow="visible">
   <path d="m1.0469-0.3125c0.10156 0 0.17969-0.035156 0.23438-0.10938 0.0625-0.082031 0.09375-0.19531 0.09375-0.34375 0-0.14453-0.03125-0.25391-0.09375-0.32812-0.054688-0.082031-0.13281-0.125-0.23438-0.125-0.10547 0-0.1875 0.042969-0.25 0.125-0.054687 0.074219-0.078125 0.18359-0.078125 0.32812 0 0.14844 0.023438 0.26172 0.078125 0.34375 0.0625 0.074219 0.14453 0.10938 0.25 0.10938zm-0.32812-1c0.070312-0.082031 0.14844-0.14453 0.23438-0.1875 0.082031-0.039062 0.17578-0.0625 0.28125-0.0625 0.1875 0 0.33594 0.078125 0.45312 0.23438 0.125 0.14844 0.1875 0.33594 0.1875 0.5625 0 0.24219-0.0625 0.4375-0.1875 0.59375-0.11719 0.14844-0.26562 0.21875-0.45312 0.21875-0.10547 0-0.19922-0.023438-0.28125-0.0625-0.085937-0.050781-0.16406-0.11719-0.23438-0.20312v0.21875h-0.48438v-2.125h0.48438z"/>
  </symbol>
  <symbol id="j" overflow="visible">
   <path d="m0.03125-1.5312h0.48438l0.42188 1.0469 0.34375-1.0469h0.48438l-0.64062 1.6719c-0.0625 0.17578-0.13672 0.29688-0.21875 0.35938-0.085938 0.070312-0.19922 0.10938-0.34375 0.10938h-0.28125v-0.32812h0.15625c0.082031 0 0.14062-0.015625 0.17188-0.046875 0.039063-0.023437 0.070313-0.070313 0.09375-0.14062l0.015625-0.03125z"/>
  </symbol>
  <symbol id="i" overflow="visible">
   <path d="m0.23438-2.125h0.48438v2.125h-0.48438z"/>
  </symbol>
  <symbol id="b" overflow="visible">
   <path d="m0.96875-1.2188c-0.11719 0-0.20312 0.042969-0.26562 0.125-0.054687 0.074219-0.078125 0.18359-0.078125 0.32812 0 0.14844 0.023438 0.26172 0.078125 0.34375 0.0625 0.074219 0.14844 0.10938 0.26562 0.10938 0.10156 0 0.17969-0.035156 0.23438-0.10938 0.0625-0.082031 0.09375-0.19531 0.09375-0.34375 0-0.14453-0.03125-0.25391-0.09375-0.32812-0.054687-0.082031-0.13281-0.125-0.23438-0.125zm0-0.34375c0.25781 0 0.46094 0.074219 0.60938 0.21875 0.14453 0.13672 0.21875 0.32812 0.21875 0.57812s-0.074219 0.44922-0.21875 0.59375c-0.14844 0.14844-0.35156 0.21875-0.60938 0.21875-0.27344 0-0.48047-0.070312-0.625-0.21875-0.14844-0.14453-0.21875-0.34375-0.21875-0.59375s0.070312-0.44141 0.21875-0.57812c0.14453-0.14453 0.35156-0.21875 0.625-0.21875z"/>
  </symbol>
  <symbol id="v" overflow="visible">
   <path d="m0.15625-1h0.85938v0.39062h-0.85938z"/>
  </symbol>
  <symbol id="u" overflow="visible">
   <path d="m1.2812-0.26562c-0.074219 0.09375-0.15234 0.16406-0.23438 0.20312-0.074219 0.042969-0.16797 0.0625-0.28125 0.0625-0.1875 0-0.34375-0.070312-0.46875-0.21875-0.11719-0.14453-0.17188-0.33203-0.17188-0.5625 0-0.22656 0.054688-0.41406 0.17188-0.5625 0.125-0.14453 0.28125-0.21875 0.46875-0.21875 0.11328 0 0.20703 0.023438 0.28125 0.0625 0.082031 0.042969 0.16016 0.10938 0.23438 0.20312v-0.23438h0.48438v1.375c0 0.25-0.078125 0.4375-0.23438 0.5625-0.15625 0.13281-0.38281 0.20312-0.67188 0.20312-0.09375 0-0.1875-0.011719-0.28125-0.03125-0.085937-0.011719-0.17188-0.03125-0.26562-0.0625v-0.375c0.082031 0.039063 0.16406 0.070313 0.25 0.09375 0.082031 0.03125 0.16406 0.046875 0.25 0.046875 0.15625 0 0.26953-0.039062 0.34375-0.10938 0.082031-0.074219 0.125-0.17969 0.125-0.32812zm-0.32812-0.95312c-0.10547 0-0.1875 0.042969-0.25 0.125-0.054687 0.074219-0.078125 0.17969-0.078125 0.3125 0 0.13672 0.023438 0.24219 0.078125 0.3125 0.0625 0.074219 0.14453 0.10938 0.25 0.10938 0.10156 0 0.17969-0.035156 0.23438-0.10938 0.0625-0.070312 0.09375-0.17578 0.09375-0.3125 0-0.13281-0.03125-0.23828-0.09375-0.3125-0.054688-0.082031-0.13281-0.125-0.23438-0.125z"/>
  </symbol>
  <symbol id="t" overflow="visible">
   <path d="m0.71875-0.21875v0.79688h-0.48438v-2.1094h0.48438v0.21875c0.070312-0.082031 0.14844-0.14453 0.23438-0.1875 0.082031-0.039062 0.17578-0.0625 0.28125-0.0625 0.1875 0 0.33594 0.078125 0.45312 0.23438 0.125 0.14844 0.1875 0.33594 0.1875 0.5625 0 0.24219-0.0625 0.4375-0.1875 0.59375-0.11719 0.14844-0.26562 0.21875-0.45312 0.21875-0.10547 0-0.19922-0.023438-0.28125-0.0625-0.085937-0.050781-0.16406-0.11719-0.23438-0.20312zm0.32812-1c-0.10547 0-0.1875 0.042969-0.25 0.125-0.054687 0.074219-0.078125 0.18359-0.078125 0.32812 0 0.14844 0.023438 0.26172 0.078125 0.34375 0.0625 0.074219 0.14453 0.10938 0.25 0.10938 0.10156 0 0.17969-0.035156 0.23438-0.10938 0.0625-0.082031 0.09375-0.19531 0.09375-0.34375 0-0.14453-0.03125-0.25391-0.09375-0.32812-0.054688-0.082031-0.13281-0.125-0.23438-0.125z"/>
  </symbol>
  <symbol id="h" overflow="visible">
   <path d="m1.7656-0.9375v0.9375h-0.48438v-0.70312c0-0.13281-0.007812-0.22656-0.015625-0.28125 0-0.050781-0.011719-0.085937-0.03125-0.10938-0.011719-0.03125-0.039063-0.054688-0.078125-0.078125-0.03125-0.019531-0.070312-0.03125-0.10938-0.03125-0.09375 0-0.17188 0.042969-0.23438 0.125-0.0625 0.074219-0.09375 0.18359-0.09375 0.32812v0.75h-0.48438v-2.125h0.48438v0.8125c0.070312-0.082031 0.14844-0.14453 0.23438-0.1875 0.082031-0.039062 0.17578-0.0625 0.28125-0.0625 0.17578 0 0.30469 0.058594 0.39062 0.17188 0.09375 0.10547 0.14062 0.25781 0.14062 0.45312z"/>
  </symbol>
  <symbol id="s" overflow="visible">
   <path d="m0.28125-0.53125h0.5v0.53125h-0.5z"/>
  </symbol>
  <symbol id="g" overflow="visible">
   <path d="m1.4688-1.4844v0.40625c-0.0625-0.050781-0.13281-0.085937-0.20312-0.10938-0.0625-0.019531-0.13281-0.03125-0.20312-0.03125-0.13672 0-0.24609 0.042969-0.32812 0.125-0.074219 0.074219-0.10938 0.18359-0.10938 0.32812 0 0.14844 0.035156 0.26172 0.10938 0.34375 0.082031 0.074219 0.19141 0.10938 0.32812 0.10938 0.070312 0 0.14453-0.007812 0.21875-0.03125 0.070312-0.019531 0.13281-0.050781 0.1875-0.09375v0.39062c-0.074219 0.03125-0.15234 0.050781-0.23438 0.0625-0.074219 0.019531-0.15234 0.03125-0.23438 0.03125-0.27344 0-0.48438-0.070312-0.64062-0.21875-0.15625-0.14453-0.23438-0.34375-0.23438-0.59375s0.078125-0.44141 0.23438-0.57812c0.15625-0.14453 0.36719-0.21875 0.64062-0.21875 0.082031 0 0.16016 0.007812 0.23438 0.015625 0.082031 0.011719 0.16016 0.03125 0.23438 0.0625z"/>
  </symbol>
  <symbol id="f" overflow="visible">
   <path d="m1.6562-1.2812c0.0625-0.09375 0.13281-0.16016 0.21875-0.20312 0.082031-0.050781 0.17578-0.078125 0.28125-0.078125 0.17578 0 0.30469 0.058594 0.39062 0.17188 0.09375 0.10547 0.14062 0.25781 0.14062 0.45312v0.9375h-0.48438v-0.79688-0.03125-0.0625c0-0.10156-0.015625-0.17969-0.046875-0.23438-0.03125-0.050781-0.085938-0.078125-0.15625-0.078125-0.09375 0-0.16797 0.042969-0.21875 0.125-0.042969 0.074219-0.070312 0.18359-0.078125 0.32812v0.75h-0.48438v-0.79688c0-0.16406-0.015625-0.27344-0.046875-0.32812-0.03125-0.050781-0.085937-0.078125-0.15625-0.078125-0.09375 0-0.16797 0.042969-0.21875 0.125-0.054687 0.074219-0.078125 0.18359-0.078125 0.32812v0.75h-0.48438v-1.5312h0.48438v0.21875c0.0625-0.082031 0.12891-0.14453 0.20312-0.1875 0.082031-0.039062 0.17188-0.0625 0.26562-0.0625 0.10156 0 0.19531 0.027344 0.28125 0.078125 0.082031 0.054687 0.14453 0.12109 0.1875 0.20312z"/>
  </symbol>
  <symbol id="r" overflow="visible">
   <path d="m1.2344-2.125v0.32812h-0.26562c-0.0625 0-0.10938 0.011719-0.14062 0.03125-0.03125 0.023437-0.046875 0.0625-0.046875 0.125v0.10938h0.42188v0.34375h-0.42188v1.1875h-0.48438v-1.1875h-0.25v-0.34375h0.25v-0.10938c0-0.16406 0.046875-0.28516 0.14062-0.35938 0.09375-0.082031 0.23828-0.125 0.4375-0.125z"/>
  </symbol>
  <symbol id="q" overflow="visible">
   <path d="m0.25-2.0312h0.59375l0.73438 1.3906v-1.3906h0.5v2.0312h-0.57812l-0.75-1.4062v1.4062h-0.5z"/>
  </symbol>
  <symbol id="p" overflow="visible">
   <path d="m0.21875-0.59375v-0.9375h0.48438v0.15625 0.3125 0.25 0.26562c0.007813 0.054687 0.023437 0.089844 0.046875 0.10938 0.019531 0.042969 0.046875 0.074219 0.078125 0.09375 0.03125 0.011719 0.066406 0.015625 0.10938 0.015625 0.10156 0 0.17969-0.035156 0.23438-0.10938 0.0625-0.082031 0.09375-0.19531 0.09375-0.34375v-0.75h0.48438v1.5312h-0.48438v-0.21875c-0.074219 0.085938-0.15234 0.15234-0.23438 0.20312-0.085938 0.039062-0.17188 0.0625-0.26562 0.0625-0.17969 0-0.3125-0.050781-0.40625-0.15625-0.09375-0.11328-0.14062-0.27344-0.14062-0.48438z"/>
  </symbol>
  <symbol id="o" overflow="visible">
   <path d="m1.7656-0.9375v0.9375h-0.48438v-0.71875c0-0.125-0.007812-0.21094-0.015625-0.26562 0-0.050781-0.011719-0.085937-0.03125-0.10938-0.011719-0.03125-0.039063-0.054688-0.078125-0.078125-0.03125-0.019531-0.070312-0.03125-0.10938-0.03125-0.09375 0-0.17188 0.042969-0.23438 0.125-0.0625 0.074219-0.09375 0.18359-0.09375 0.32812v0.75h-0.48438v-1.5312h0.48438v0.21875c0.070312-0.082031 0.14844-0.14453 0.23438-0.1875 0.082031-0.039062 0.17578-0.0625 0.28125-0.0625 0.17578 0 0.30469 0.058594 0.39062 0.17188 0.09375 0.10547 0.14062 0.25781 0.14062 0.45312z"/>
  </symbol>
  <symbol id="n" overflow="visible">
   <path d="m0.25-2.0312h0.875c0.25781 0 0.45703 0.058594 0.59375 0.17188 0.14453 0.11719 0.21875 0.27734 0.21875 0.48438 0 0.21875-0.074219 0.38672-0.21875 0.5-0.13672 0.11719-0.33594 0.17188-0.59375 0.17188h-0.34375v0.70312h-0.53125zm0.53125 0.375v0.5625h0.29688c0.09375 0 0.16406-0.019531 0.21875-0.0625 0.0625-0.050781 0.09375-0.125 0.09375-0.21875s-0.03125-0.16016-0.09375-0.20312c-0.054687-0.050781-0.125-0.078125-0.21875-0.078125z"/>
  </symbol>
  <symbol id="m" overflow="visible">
   <path d="m0.23438-1.5312h0.48438v1.5c0 0.20703-0.054688 0.36328-0.15625 0.46875-0.09375 0.11328-0.23047 0.17188-0.40625 0.17188h-0.25v-0.32812h0.078125c0.09375 0 0.15625-0.023438 0.1875-0.0625 0.039063-0.042969 0.0625-0.125 0.0625-0.25zm0-0.59375h0.48438v0.40625h-0.48438z"/>
  </symbol>
 </defs>
 <g>
  <path d="m473.59 357.11c1.6797 7-1.7344 13.832-7.5586 15.176-2.8008 0.67188-5.7109 0-8.2305-1.9023-2.6328-1.9023-4.4805-4.8711-5.3203-8.2891-1.6797-7 1.7344-13.832 7.5586-15.176 0.72656-0.16797 1.3984-0.22266 2.1289-0.22266 2.1289 0 4.2578 0.72656 6.1602 2.1289 2.5703 1.8984 4.4766 4.8672 5.2617 8.2852z"/>
  <path d="m512.34 343.34c-0.89453-2.9102-2.5195-5.3203-4.5938-7-2.0703-1.6797-4.4805-2.6328-6.9453-2.6328-0.89453 0-1.793 0.11328-2.6875 0.39062-2.7422 0.83984-4.9297 2.9102-6.1602 5.7695-1.2891 2.9688-1.3984 6.4961-0.39062 9.8555 1.0625 3.3594 3.1367 6.2148 5.8789 7.9531 2.6875 1.6797 5.6562 2.1836 8.3438 1.3438 5.7148-1.793 8.625-8.793 6.5547-15.68zm0 0c-0.89453-2.9102-2.5195-5.3203-4.5938-7-2.0703-1.6797-4.4805-2.6328-6.9453-2.6328-0.89453 0-1.793 0.11328-2.6875 0.39062-2.7422 0.83984-4.9297 2.9102-6.1602 5.7695-1.2891 2.9688-1.3984 6.4961-0.39062 9.8555 1.0625 3.3594 3.1367 6.2148 5.8789 7.9531 2.6875 1.6797 5.6562 2.1836 8.3438 1.3438 5.7148-1.793 8.625-8.793 6.5547-15.68zm0 0c-0.89453-2.9102-2.5195-5.3203-4.5938-7-2.0703-1.6797-4.4805-2.6328-6.9453-2.6328-0.89453 0-1.793 0.11328-2.6875 0.39062-2.7422 0.83984-4.9297 2.9102-6.1602 5.7695-1.2891 2.9688-1.3984 6.4961-0.39062 9.8555 1.0625 3.3594 3.1367 6.2148 5.8789 7.9531 2.6875 1.6797 5.6562 2.1836 8.3438 1.3438 5.7148-1.793 8.625-8.793 6.5547-15.68zm0 0c-0.89453-2.9102-2.5195-5.3203-4.5938-7-2.0703-1.6797-4.4805-2.6328-6.9453-2.6328-0.89453 0-1.793 0.11328-2.6875 0.39062-2.7422 0.83984-4.9297 2.9102-6.1602 5.7695-1.2891 2.9688-1.3984 6.4961-0.39062 9.8555 1.0625 3.3594 3.1367 6.2148 5.8789 7.9531 2.6875 1.6797 5.6562 2.1836 8.3438 1.3438 5.7148-1.793 8.625-8.793 6.5547-15.68zm0 0c-0.89453-2.9102-2.5195-5.3203-4.5938-7-2.0703-1.6797-4.4805-2.6328-6.9453-2.6328-0.89453 0-1.793 0.11328-2.6875 0.39062-2.7422 0.83984-4.9297 2.9102-6.1602 5.7695-1.2891 2.9688-1.3984 6.4961-0.39062 9.8555 1.0625 3.3594 3.1367 6.2148 5.8789 7.9531 2.6875 1.6797 5.6562 2.1836 8.3438 1.3438 5.7148-1.793 8.625-8.793 6.5547-15.68zm0 0c-0.89453-2.9102-2.5195-5.3203-4.5938-7-2.0703-1.6797-4.4805-2.6328-6.9453-2.6328-0.89453 0-1.793 0.11328-2.6875 0.39062-2.7422 0.83984-4.9297 2.9102-6.1602 5.7695-1.2891 2.9688-1.3984 6.4961-0.39062 9.8555 1.0625 3.3594 3.1367 6.2148 5.8789 7.9531 2.6875 1.6797 5.6562 2.1836 8.3438 1.3438 5.7148-1.793 8.625-8.793 6.5547-15.68zm0 0c-0.89453-2.9102-2.5195-5.3203-4.5938-7-2.0703-1.6797-4.4805-2.6328-6.9453-2.6328-0.89453 0-1.793 0.11328-2.6875 0.39062-2.7422 0.83984-4.9297 2.9102-6.1602 5.7695-1.2891 2.9688-1.3984 6.4961-0.39062 9.8555 1.0625 3.3594 3.1367 6.2148 5.8789 7.9531 2.6875 1.6797 5.6562 2.1836 8.3438 1.3438 5.7148-1.793 8.625-8.793 6.5547-15.68zm0 0c-0.89453-2.9102-2.5195-5.3203-4.5938-7-2.0703-1.6797-4.4805-2.6328-6.9453-2.6328-0.89453 0-1.793 0.11328-2.6875 0.39062-2.7422 0.83984-4.9297 2.9102-6.1602 5.7695-1.2891 2.9688-1.3984 6.4961-0.39062 9.8555 1.0625 3.3594 3.1367 6.2148 5.8789 7.9531 2.6875 1.6797 5.6562 2.1836 8.3438 1.3438 5.7148-1.793 8.625-8.793 6.5547-15.68zm9.9141-15.734c-7.9531-16.688-19.207-20.441-27.777-20.441-7 0-12.152 2.5195-12.152 2.5195-27.832 3.4727-40.543 19.039-46.312 33.602-9.5742 24.246 8.7344 49.953 33.602 49.953 1.9023 0 3.8633-0.16797 5.8242-0.44922 0.61719-0.11328 1.1758-0.22266 1.7344-0.33594 0.83984-0.16797 1.6797-0.33594 2.4648-0.50391 7.6719-1.793 12.992-4.4805 12.992-4.4805 44.07-31.641 29.625-59.863 29.625-59.863zm-55.496 47.711c-0.95312 0.22266-1.9023 0.33594-2.8555 0.33594-2.7422 0-5.4883-0.95313-7.9531-2.7422-3.1914-2.3516-5.543-5.9375-6.4961-10.078-2.0703-8.6797 2.3516-17.137 9.8555-18.93 3.6953-0.83984 7.5039 0 10.809 2.4062 3.1914 2.3516 5.543 5.9375 6.4961 10.078 0.33594 1.457 0.50391 2.8555 0.50391 4.2578 0 7.0547-4.1445 13.215-10.359 14.672zm39.926-13.328c-1.1758 0.39062-2.4062 0.55859-3.6406 0.55859-2.4648 0-4.9844-0.72656-7.2812-2.2383-3.3594-2.1289-5.8789-5.543-7.168-9.6328-1.2891-4.0898-1.0625-8.3438 0.50391-11.984 1.625-3.7539 4.4805-6.4414 8.0625-7.5586 7.3359-2.2383 15.457 2.8008 18.09 11.312 0.55859 1.793 0.83984 3.6406 0.83984 5.375 0.003906 6.5508-3.582 12.375-9.4062 14.168zm1.0664-25.648c-2.0703-1.6797-4.4805-2.6328-6.9453-2.6328-0.89453 0-1.793 0.11328-2.6875 0.39062-2.7422 0.83984-4.9297 2.9102-6.1602 5.7695-1.2891 2.9688-1.3984 6.4961-0.39063 9.8555 1.0625 3.3594 3.1367 6.2148 5.8789 7.9531 2.6875 1.6797 5.6562 2.1836 8.3438 1.3438 5.7109-1.793 8.625-8.793 6.5508-15.68-0.89453-2.9102-2.5742-5.3203-4.5898-7zm4.5898 7c-0.89453-2.9102-2.5195-5.3203-4.5938-7-2.0703-1.6797-4.4805-2.6328-6.9453-2.6328-0.89453 0-1.793 0.11328-2.6875 0.39062-2.7422 0.83984-4.9297 2.9102-6.1602 5.7695-1.2891 2.9688-1.3984 6.4961-0.39062 9.8555 1.0625 3.3594 3.1367 6.2148 5.8789 7.9531 2.6875 1.6797 5.6562 2.1836 8.3438 1.3438 5.7148-1.793 8.625-8.793 6.5547-15.68zm0 0c-0.89453-2.9102-2.5195-5.3203-4.5938-7-2.0703-1.6797-4.4805-2.6328-6.9453-2.6328-0.89453 0-1.793 0.11328-2.6875 0.39062-2.7422 0.83984-4.9297 2.9102-6.1602 5.7695-1.2891 2.9688-1.3984 6.4961-0.39062 9.8555 1.0625 3.3594 3.1367 6.2148 5.8789 7.9531 2.6875 1.6797 5.6562 2.1836 8.3438 1.3438 5.7148-1.793 8.625-8.793 6.5547-15.68zm0 0c-0.89453-2.9102-2.5195-5.3203-4.5938-7-2.0703-1.6797-4.4805-2.6328-6.9453-2.6328-0.89453 0-1.793 0.11328-2.6875 0.39062-2.7422 0.83984-4.9297 2.9102-6.1602 5.7695-1.2891 2.9688-1.3984 6.4961-0.39062 9.8555 1.0625 3.3594 3.1367 6.2148 5.8789 7.9531 2.6875 1.6797 5.6562 2.1836 8.3438 1.3438 5.7148-1.793 8.625-8.793 6.5547-15.68zm0 0c-0.89453-2.9102-2.5195-5.3203-4.5938-7-2.0703-1.6797-4.4805-2.6328-6.9453-2.6328-0.89453 0-1.793 0.11328-2.6875 0.39062-2.7422 0.83984-4.9297 2.9102-6.1602 5.7695-1.2891 2.9688-1.3984 6.4961-0.39062 9.8555 1.0625 3.3594 3.1367 6.2148 5.8789 7.9531 2.6875 1.6797 5.6562 2.1836 8.3438 1.3438 5.7148-1.793 8.625-8.793 6.5547-15.68zm0 0c-0.89453-2.9102-2.5195-5.3203-4.5938-7-2.0703-1.6797-4.4805-2.6328-6.9453-2.6328-0.89453 0-1.793 0.11328-2.6875 0.39062-2.7422 0.83984-4.9297 2.9102-6.1602 5.7695-1.2891 2.9688-1.3984 6.4961-0.39062 9.8555 1.0625 3.3594 3.1367 6.2148 5.8789 7.9531 2.6875 1.6797 5.6562 2.1836 8.3438 1.3438 5.7148-1.793 8.625-8.793 6.5547-15.68zm0 0c-0.89453-2.9102-2.5195-5.3203-4.5938-7-2.0703-1.6797-4.4805-2.6328-6.9453-2.6328-0.89453 0-1.793 0.11328-2.6875 0.39062-2.7422 0.83984-4.9297 2.9102-6.1602 5.7695-1.2891 2.9688-1.3984 6.4961-0.39062 9.8555 1.0625 3.3594 3.1367 6.2148 5.8789 7.9531 2.6875 1.6797 5.6562 2.1836 8.3438 1.3438 5.7148-1.793 8.625-8.793 6.5547-15.68z"/>
  <path d="m471.3 272.5c-31.695-93.633-129.47-82.602-129.47-82.602-95.031 7.5586-120.51 83.328-120.51 83.328s-0.33594 0.72656-0.89453 2.1836l0.39062-1.5117-7.7266-0.67188c3.8086-12.711-4.1445-23.742-4.1445-23.742-16.52-17.922-27.887-3.0781-27.887-3.0781-13.777 26.152 12.375 36.848 12.375 36.848-3.8086 4.8164-16.855 7.8945-16.855 7.8945-3.6953 7.1133 3.3047 7.3359 3.3047 7.3359 15.625 2.9688 26.711-11.258 26.711-11.258l10.023 0.50391c-2.4062 9.8008-4.7617 24.191-4.2578 42.336 1.0078 35.449 28.559 70.223 28.559 70.223 6.5508 2.7422 5.4883 32.703 5.4883 32.703 1.3984 39.258 27.215 37.855 27.215 37.855 16.855-0.67188 25.816-26.543 25.816-26.543 9.6328 19.656 22.398 17.246 22.398 17.246 13.105 0.33594 17.922-12.375 17.922-12.375l12.711 3.0781c18.594-3.8086 20.328 17.191 20.328 17.191 13.777 34.105 38.246 20.664 38.246 20.664 11.031-7.5586 12.711-41.664 12.711-41.664 11.367 25.145 33.375 14.449 33.375 14.449 15.512-5.8789 6.8867-47.207 6.8867-47.207 4.5352-2.9102 9.9102-11.762 13.105-17.527-9.5195 4.1992-17.922 5.7695-25.312 5.7695-10.754 0-19.266-3.4141-25.426-7.2812-10.137-6.3281-16.574-15.734-16.574-18.031 0-1.3984 1.1758-2.5742 2.5742-2.5742 1.2305 0 2.2383 0.83984 2.5195 2.0156 0.83984 1.793 7.8398 12.543 21.449 17.863 9.5195 3.6953 19.992 3.8086 31.191 0.33594-12.098-0.61719-23.352-7-30.352-17.359-7.5039-11.031-8.9609-24.473-4.0898-36.793 5.543-14.055 18.48-31.586 48.328-35.504 1.5664-0.67188 6.6094-2.5742 12.992-2.5742-10.52-8.9023-23.117-31.527-23.117-31.527zm-270.93-0.55859s-17.414-7.5039-7.5039-18.984c0.39453-0.39453 9.5781-0.61719 7.5039 18.984zm86.352-67.594c33.656-16.352 58.801-9.7422 58.801-9.7422 69.215 10.305 19.711 20.719 19.711 20.719-37.855-16.52-78.512-10.977-78.512-10.977zm65.129 86.41c-0.83984-0.33594-1.7344-0.67188-2.5742-1.0625-0.83984-0.33594-1.6797-0.78516-2.4648-1.2305-0.78516-0.44922-1.625-0.89453-2.3516-1.457-0.78516-0.50391-1.5117-1.0625-2.2383-1.625-0.67188-0.61719-1.3984-1.1758-2.0156-1.8477-0.67188-0.61719-1.2305-1.3438-1.793-2.0703 0.67188 0.61719 1.3438 1.2305 2.0703 1.793 0.67188 0.55859 1.457 1.0625 2.1836 1.5664 0.78516 0.44922 1.5117 0.95313 2.3516 1.2891 0.78516 0.44922 1.625 0.78516 2.4062 1.1211 0.83984 0.33594 1.6797 0.67188 2.5195 0.89453 0.83984 0.33594 1.6797 0.55859 2.5195 0.78516 0.83984 0.22266 1.7344 0.44922 2.5742 0.61719 0.83984 0.16797 1.7344 0.33594 2.6328 0.44922 3.5273 0.50391 7.0547 0.72656 10.586 0.72656 1.793 0 3.5273-0.11328 5.3203-0.22266 0.89453-0.054688 1.793-0.16797 2.6328-0.22266 0.83984-0.11328 1.6797-0.22266 2.4648-0.33594 2.7422-0.78516 5.4883-1.5117 8.1211-2.5195l2.0156-0.67188 1.9609-0.78516c1.2891-0.55859 2.6328-1.0078 3.8633-1.6797 2.5742-1.1758 5.0391-2.5195 7.3906-4.0312 1.1758-0.72656 2.3516-1.457 3.4727-2.3516l1.6797-1.2305 1.5664-1.3438c2.1289-1.793 4.0312-3.7539 5.8242-5.8789 0.83984-1.0625 1.7344-2.1289 2.4648-3.3047 0.39062-0.55859 0.78516-1.1211 1.1211-1.7344 0.33594-0.61719 0.72656-1.1758 1.0625-1.7344l0.95312-1.793 0.83984-1.793c0.28125-0.61719 0.55859-1.3438 0.78516-2.0156 0.22266-0.55859 0.39062-1.1758 0.55859-1.793 0.55859-2.4062 0.55859-4.9297-0.16797-7.2812-0.28125-1.2305-0.83984-2.3516-1.457-3.4141-0.67187-1.0625-1.3984-2.0703-2.3516-2.9102-0.44922-0.44922-0.95312-0.83984-1.3984-1.2305-0.50391-0.33594-1.0078-0.72656-1.5117-0.95312-0.28125-0.11328-0.44922-0.28125-0.78516-0.39062l-1.0078-0.39062-0.22266-0.11328-0.054688-0.054687h-0.054687l-0.50391-0.16797-1.0078-0.28125-1.9609-0.61719c-0.67188-0.16797-1.3438-0.28125-2.0703-0.44922l-2.0703-0.44922-4.1406-0.67188-4.2578-0.44531-2.1289-0.11328c-1.457-0.11328-2.8555-0.16797-4.3125-0.22266-1.457-0.054688-2.8555-0.054688-4.3125-0.054688s-2.8555 0-4.3125 0.054688c-1.457 0-2.8555 0.054687-4.3125 0.16797-1.457 0.054687-2.9102 0.16797-4.3125 0.22266-1.457 0.054687-2.9102 0.22266-4.3125 0.28125-2.9102 0.28125-5.7695 0.50391-8.6797 0.83984 2.8008-0.72656 5.6562-1.3984 8.5117-1.9609 2.8555-0.55859 5.7695-1.0625 8.625-1.457 1.457-0.22266 2.9102-0.39062 4.3672-0.55859 1.457-0.22266 2.9102-0.33594 4.3672-0.39062 1.457-0.11328 2.9102-0.22266 4.4258-0.28125 1.457-0.11328 2.9688-0.11328 4.4258-0.11328 0.72656 0 1.457-0.054688 2.2383 0l4.4766 0.22656 4.4766 0.44531 2.2383 0.33594c0.72656 0.11328 1.5117 0.22266 2.2383 0.39062l2.1836 0.55859 1.1211 0.28125 0.55859 0.16797h0.054687l0.11328 0.054687h0.054688l0.11328 0.054688 0.28125 0.11328 1.0078 0.39062c0.33594 0.11328 0.78516 0.33594 1.1758 0.55859 1.5664 0.78516 2.8555 1.6797 4.1445 2.8008 1.2305 1.1211 2.2969 2.4062 3.1914 3.8086 0.83984 1.3984 1.625 2.9102 2.1289 4.5352 1.0625 3.1914 1.0625 6.6641 0.33594 9.9102-0.22266 0.78516-0.44922 1.625-0.72656 2.4062-0.28125 0.67188-0.50391 1.3438-0.78516 2.0703l-0.95312 2.1836-1.0625 2.0703c-1.457 2.6875-3.1914 5.2656-5.207 7.5586-2.0156 2.2969-4.1445 4.4805-6.4961 6.4414l-1.793 1.457-1.8477 1.3438c-1.2305 0.89453-2.5195 1.6797-3.8086 2.4648-2.5742 1.5117-5.3203 2.8555-8.0625 4.0312-1.3438 0.61719-2.7422 1.1211-4.1445 1.625l-2.0703 0.78516-2.1289 0.67188c-2.8555 0.89453-5.7109 1.5117-8.625 2.1836l-0.11328 0.054688h-0.054687c-1.0078 0.11328-1.9023 0.16797-2.8555 0.22266-0.95312 0.054687-1.8477 0.11328-2.8008 0.11328-1.8477 0.054687-3.6953 0-5.543-0.11328-3.6953-0.22266-7.3906-0.72656-10.977-1.5664-0.89453-0.22266-1.793-0.44922-2.6875-0.72656-1.1719-0.39844-2.0156-0.67578-2.9102-1.0117zm23.41 84.391c-10.586 0-19.098-8.5664-19.098-19.098 0-10.586 8.5664-19.098 19.098-19.098 10.527 0 19.098 8.5664 19.098 19.098-0.003907 10.527-8.5703 19.098-19.098 19.098zm52.973-62.105c-0.50391 1.3438-2.0156 1.9609-3.3594 1.457-7.8398-3.0234-14.223-3.1367-19.039-0.33594-7.5039 4.4805-8.9609 14.672-8.9609 14.785-0.16797 1.2891-1.2891 2.2383-2.5742 2.2383h-0.33594c-1.3984-0.16797-2.4062-1.5117-2.2383-2.9102 0.054688-0.50391 1.793-12.824 11.426-18.535 6.2148-3.6953 14.168-3.6953 23.574-0.054687 1.3984 0.55469 2.0703 2.0117 1.5078 3.3555z"/>
  <path d="m436.35 211.06s44.238-11.535 72.129 9.1289c0 0-12.543 36.344-31.863 45.305 0.054687-0.054688-8.5703-30.688-40.266-54.434z"/>
  <path d="m479.7 392c-0.78516 0.16797-1.625 0.33594-2.4648 0.50391 0.22266-0.11328 0.44922-0.22266 0.67188-0.33594 0.5625-0.28125 1.2344-0.33594 1.793-0.16797z" fill="#fff"/>
  <path d="m362.88 158.31v7.9531c-0.16797 0.50391-0.33594 0.95312-0.44922 1.457-2.2383 12.488-9.0156 21.672-20.551 27.047-3.4141 1.5664-7.2812 2.2969-10.922 3.4141h-7.9531c-0.55859-0.16797-1.1211-0.39062-1.6797-0.44922-19.824-3.0781-33.152-21.617-29.902-41.441 2.8555-17.359 17.305-29.68 35.281-30.07 16.855-0.39062 32.09 12.039 35.449 28.895 0.22266 1.0664 0.44922 2.1289 0.72656 3.1953zm-51.91 13.777c1.6797 7.3359 5.8789 11.594 13.328 12.488v6.3281h5.2656v-6.3281c1.0625-0.22266 1.9023-0.39062 2.7422-0.55859 5.543-1.1758 9.5742-5.4883 10.305-11.09 0.83984-6.4961-1.457-11.199-7.0547-13.887-3.6406-1.7344-7.4492-3.1914-11.145-4.8711-1.7344-0.78516-2.5195-2.2383-2.3516-4.1445 0.11328-1.9609 1.1211-3.3594 2.8555-4.1445 2.4062-1.0625 5.3203-0.22266 7.0547 2.1289 0.78516 1.1211 1.3984 2.3516 2.1836 3.6953 2.4062-1.0078 4.7617-2.0156 7.168-3.0234-1.625-6.2148-5.7109-9.4062-11.816-10.414v-4.7031h-5.3203c0 1.0625-0.054688 1.9609 0 2.8555 0.11328 1.3984-0.33594 2.0703-1.793 2.4062-5.7695 1.2891-9.1836 5.3203-9.8555 11.594-0.61719 5.4336 1.9609 10.191 7.0547 12.656 3.5273 1.6797 7.2227 3.0234 10.809 4.5938 2.0703 0.89453 2.9688 2.6328 2.6875 4.8164-0.28125 2.2969-1.625 3.7539-3.8633 4.3125-4.1992 1.0625-7.8945-0.89453-9.3516-4.9844-0.22266-0.61719-0.44922-1.1758-0.67188-1.9023-2.8555 0.77344-5.4297 1.4453-8.2305 2.1758z"/>
  <path d="m268.02 105.84v6.1602c-0.11328 0.39062-0.28125 0.72656-0.33594 1.1211-1.7344 9.6328-6.9453 16.742-15.848 20.887-2.6328 1.2305-5.6016 1.793-8.3984 2.6328h-6.1602c-0.44922-0.11328-0.83984-0.28125-1.2891-0.33594-15.289-2.4062-25.594-16.688-23.07-31.977 2.1836-13.441 13.328-22.902 27.215-23.238 12.992-0.28125 24.754 9.2969 27.328 22.289 0.16797 0.78125 0.39062 1.6211 0.55859 2.4609zm-39.984 10.641c1.2891 5.6562 4.5352 8.9609 10.305 9.6328v4.9297h4.0312v-4.8711c0.78516-0.16797 1.457-0.28125 2.1289-0.44922 4.3125-0.89453 7.3906-4.2578 7.9531-8.5117 0.67188-5.0391-1.1211-8.625-5.4336-10.695-2.8008-1.3438-5.7695-2.4648-8.5664-3.7539-1.3438-0.61719-1.9023-1.7344-1.8477-3.1914 0.11328-1.5117 0.83984-2.5742 2.2383-3.1914 1.8477-0.83984 4.0898-0.16797 5.4336 1.6797 0.61719 0.83984 1.0625 1.8477 1.6797 2.8555 1.8477-0.78516 3.6953-1.5664 5.543-2.3516-1.2305-4.8164-4.4258-7.2812-9.1289-8.0625v-3.6406h-4.0898c0 0.83984-0.054688 1.5117 0 2.1836 0.11328 1.0625-0.22266 1.5664-1.3984 1.8477-4.4805 1.0078-7.0547 4.0898-7.6172 8.9023-0.44922 4.1992 1.5117 7.8945 5.4336 9.7422 2.7422 1.2891 5.543 2.3516 8.3438 3.5273 1.625 0.67188 2.2969 2.0156 2.0703 3.7539-0.22266 1.7344-1.2891 2.9102-3.0234 3.3047-3.2461 0.83984-6.1055-0.67188-7.2227-3.8633-0.16797-0.44922-0.33594-0.89453-0.55859-1.457-2.1289 0.55859-4.1445 1.0625-6.2734 1.6797z"/>
  <path d="m395.75 82.375v3.7539c-0.054687 0.22266-0.16797 0.44922-0.22266 0.67188-1.0625 5.8789-4.2578 10.191-9.6875 12.711-1.625 0.72656-3.4141 1.0625-5.1523 1.625h-3.7539c-0.28125-0.054688-0.50391-0.16797-0.78516-0.22266-9.3516-1.457-15.625-10.191-14.055-19.488 1.3438-8.1758 8.1211-14 16.633-14.168 7.9531-0.16797 15.121 5.6562 16.688 13.609 0.054687 0.5 0.16797 1.0039 0.33594 1.5078zm-24.473 6.4414c0.78516 3.4727 2.8008 5.4883 6.2734 5.8789v2.9688h2.4648v-2.9688c0.50391-0.11328 0.89453-0.16797 1.2891-0.28125 2.6328-0.55859 4.5352-2.5742 4.8711-5.207 0.39062-3.0781-0.67188-5.2656-3.3047-6.5508-1.7344-0.83984-3.5273-1.5117-5.2656-2.2969-0.83984-0.39062-1.1758-1.0625-1.1211-1.9609 0.054688-0.89453 0.50391-1.5664 1.3438-1.9609 1.1211-0.50391 2.5195-0.11328 3.3047 1.0078 0.39062 0.50391 0.67188 1.1211 1.0078 1.7344 1.1211-0.50391 2.2383-0.95313 3.3594-1.3984-0.78516-2.9102-2.6875-4.4258-5.543-4.9297v-2.2383h-2.5195c0 0.50391-0.054687 0.89453 0 1.3438 0.054688 0.67188-0.16797 0.95312-0.83984 1.1211-2.7422 0.61719-4.3125 2.5195-4.6484 5.4336-0.28125 2.5742 0.89453 4.8164 3.3047 5.9375 1.6797 0.78516 3.4141 1.3984 5.0977 2.1836 1.0078 0.44922 1.3984 1.2305 1.2891 2.2969-0.11328 1.0625-0.78516 1.793-1.8477 2.0156-1.9609 0.50391-3.6953-0.44922-4.4258-2.3516-0.11328-0.28125-0.22266-0.55859-0.33594-0.89453-1.1797 0.44531-2.4102 0.78125-3.7539 1.1172z"/>
  <g>
   <use x="70" y="568.398438" xlink:href="#w"/>
   <use x="72.054688" y="568.398438" xlink:href="#c"/>
   <use x="73.4375" y="568.398438" xlink:href="#a"/>
   <use x="75.335938" y="568.398438" xlink:href="#e"/>
   <use x="77.222656" y="568.398438" xlink:href="#d"/>
   <use x="78.5625" y="568.398438" xlink:href="#a"/>
   <use x="80.460938" y="568.398438" xlink:href="#l"/>
   <use x="83.441406" y="568.398438" xlink:href="#k"/>
   <use x="85.445312" y="568.398438" xlink:href="#j"/>
   <use x="88.246094" y="568.398438" xlink:href="#i"/>
   <use x="89.203125" y="568.398438" xlink:href="#a"/>
   <use x="91.105469" y="568.398438" xlink:href="#b"/>
   <use x="93.027344" y="568.398438" xlink:href="#v"/>
   <use x="94.191406" y="568.398438" xlink:href="#u"/>
   <use x="96.195313" y="568.398438" xlink:href="#c"/>
   <use x="97.574219" y="568.398438" xlink:href="#e"/>
   <use x="99.464844" y="568.398438" xlink:href="#t"/>
   <use x="101.46875" y="568.398438" xlink:href="#h"/>
   <use x="103.460938" y="568.398438" xlink:href="#s"/>
   <use x="104.527344" y="568.398438" xlink:href="#g"/>
   <use x="106.183594" y="568.398438" xlink:href="#b"/>
   <use x="108.109375" y="568.398438" xlink:href="#f"/>
   <use x="70" y="571.199219" xlink:href="#r"/>
   <use x="71.21875" y="571.199219" xlink:href="#c"/>
   <use x="72.597656" y="571.199219" xlink:href="#b"/>
   <use x="74.523438" y="571.199219" xlink:href="#f"/>
   <use x="78.414063" y="571.199219" xlink:href="#d"/>
   <use x="79.753906" y="571.199219" xlink:href="#h"/>
   <use x="81.746094" y="571.199219" xlink:href="#a"/>
   <use x="84.621094" y="571.199219" xlink:href="#q"/>
   <use x="86.964844" y="571.199219" xlink:href="#b"/>
   <use x="88.886719" y="571.199219" xlink:href="#p"/>
   <use x="90.882812" y="571.199219" xlink:href="#o"/>
   <use x="93.847656" y="571.199219" xlink:href="#n"/>
   <use x="95.902344" y="571.199219" xlink:href="#c"/>
   <use x="97.28125" y="571.199219" xlink:href="#b"/>
   <use x="99.207031" y="571.199219" xlink:href="#m"/>
   <use x="100.164062" y="571.199219" xlink:href="#a"/>
   <use x="102.066406" y="571.199219" xlink:href="#g"/>
   <use x="103.722656" y="571.199219" xlink:href="#d"/>
  </g>
 </g>
</svg>
